<mxfile host="app.diagrams.net" agent="Mozilla/5.0 (Windows NT 10.0; Win64; x64) AppleWebKit/537.36 (KHTML, like Gecko) Chrome/134.0.0.0 Safari/537.36" version="26.1.1" pages="2">
  <diagram id="uFW6yHHrbq_5uWANLRSA" name="Diagrama de primeiro nivel">
    <mxGraphModel dx="1534" dy="772" grid="0" gridSize="10" guides="1" tooltips="1" connect="1" arrows="1" fold="1" page="0" pageScale="1" pageWidth="827" pageHeight="1169" math="0" shadow="0">
      <root>
        <mxCell id="0" />
        <mxCell id="1" parent="0" />
        <mxCell id="ofh8wj_7EFLU0r1zvv-N-18" value="Ginasio A&lt;br&gt;(Rede Local)" style="whiteSpace=wrap;html=1;" parent="1" vertex="1">
          <mxGeometry x="105" y="445" width="120" height="60" as="geometry" />
        </mxCell>
        <mxCell id="ofh8wj_7EFLU0r1zvv-N-19" value="Ginasio B&lt;div&gt;(Rede Local)&lt;/div&gt;" style="rounded=0;whiteSpace=wrap;html=1;" parent="1" vertex="1">
          <mxGeometry x="440" y="458" width="120" height="60" as="geometry" />
        </mxCell>
        <mxCell id="ofh8wj_7EFLU0r1zvv-N-21" value="Camera 1" style="shape=trapezoid;perimeter=trapezoidPerimeter;whiteSpace=wrap;html=1;fixedSize=1;" parent="1" vertex="1">
          <mxGeometry x="-6" y="565" width="98" height="45" as="geometry" />
        </mxCell>
        <mxCell id="ofh8wj_7EFLU0r1zvv-N-22" value="Camera 2" style="shape=trapezoid;perimeter=trapezoidPerimeter;whiteSpace=wrap;html=1;fixedSize=1;" parent="1" vertex="1">
          <mxGeometry x="115" y="565" width="100" height="47" as="geometry" />
        </mxCell>
        <mxCell id="ofh8wj_7EFLU0r1zvv-N-23" value="Camera 3" style="shape=trapezoid;perimeter=trapezoidPerimeter;whiteSpace=wrap;html=1;fixedSize=1;" parent="1" vertex="1">
          <mxGeometry x="240" y="563.5" width="96" height="48" as="geometry" />
        </mxCell>
        <mxCell id="ofh8wj_7EFLU0r1zvv-N-32" value="Camera 1" style="shape=trapezoid;perimeter=trapezoidPerimeter;whiteSpace=wrap;html=1;fixedSize=1;" parent="1" vertex="1">
          <mxGeometry x="393" y="594" width="98" height="45" as="geometry" />
        </mxCell>
        <mxCell id="ofh8wj_7EFLU0r1zvv-N-34" value="Camera 2" style="shape=trapezoid;perimeter=trapezoidPerimeter;whiteSpace=wrap;html=1;fixedSize=1;" parent="1" vertex="1">
          <mxGeometry x="531" y="592" width="100" height="47" as="geometry" />
        </mxCell>
        <mxCell id="ofh8wj_7EFLU0r1zvv-N-37" value="Internet" style="ellipse;shape=cloud;whiteSpace=wrap;html=1;" parent="1" vertex="1">
          <mxGeometry x="273" y="274" width="120" height="80" as="geometry" />
        </mxCell>
        <mxCell id="ofh8wj_7EFLU0r1zvv-N-38" value="Cloud&lt;div&gt;Data Center&lt;/div&gt;" style="ellipse;shape=cloud;whiteSpace=wrap;html=1;" parent="1" vertex="1">
          <mxGeometry x="448" y="165" width="120" height="80" as="geometry" />
        </mxCell>
        <mxCell id="8s1U5fgonD1U1PNJpZFF-1" value="Actor" style="shape=umlActor;verticalLabelPosition=bottom;verticalAlign=top;html=1;outlineConnect=0;" parent="1" vertex="1">
          <mxGeometry x="150" y="693" width="30" height="60" as="geometry" />
        </mxCell>
        <mxCell id="8s1U5fgonD1U1PNJpZFF-2" value="" style="endArrow=none;html=1;rounded=0;entryX=0.5;entryY=1;entryDx=0;entryDy=0;exitX=0.25;exitY=0.1;exitDx=0;exitDy=0;exitPerimeter=0;" parent="1" source="8s1U5fgonD1U1PNJpZFF-1" target="ofh8wj_7EFLU0r1zvv-N-21" edge="1">
          <mxGeometry width="50" height="50" relative="1" as="geometry">
            <mxPoint x="15" y="681" as="sourcePoint" />
            <mxPoint x="65" y="631" as="targetPoint" />
          </mxGeometry>
        </mxCell>
        <mxCell id="8s1U5fgonD1U1PNJpZFF-3" value="" style="endArrow=none;html=1;rounded=0;entryX=0.5;entryY=1;entryDx=0;entryDy=0;exitX=1;exitY=0.3333333333333333;exitDx=0;exitDy=0;exitPerimeter=0;" parent="1" source="8s1U5fgonD1U1PNJpZFF-1" target="ofh8wj_7EFLU0r1zvv-N-22" edge="1">
          <mxGeometry width="50" height="50" relative="1" as="geometry">
            <mxPoint x="201" y="697" as="sourcePoint" />
            <mxPoint x="251" y="647" as="targetPoint" />
          </mxGeometry>
        </mxCell>
        <mxCell id="8s1U5fgonD1U1PNJpZFF-4" value="" style="endArrow=none;html=1;rounded=0;entryX=0.5;entryY=1;entryDx=0;entryDy=0;exitX=1;exitY=1;exitDx=0;exitDy=0;exitPerimeter=0;" parent="1" source="8s1U5fgonD1U1PNJpZFF-1" target="ofh8wj_7EFLU0r1zvv-N-23" edge="1">
          <mxGeometry width="50" height="50" relative="1" as="geometry">
            <mxPoint x="246" y="715" as="sourcePoint" />
            <mxPoint x="296" y="665" as="targetPoint" />
          </mxGeometry>
        </mxCell>
        <mxCell id="8s1U5fgonD1U1PNJpZFF-5" value="Actor" style="shape=umlActor;verticalLabelPosition=bottom;verticalAlign=top;html=1;outlineConnect=0;" parent="1" vertex="1">
          <mxGeometry x="493" y="676" width="30" height="60" as="geometry" />
        </mxCell>
        <mxCell id="8s1U5fgonD1U1PNJpZFF-6" value="" style="endArrow=none;html=1;rounded=0;entryX=0.5;entryY=1;entryDx=0;entryDy=0;exitX=0;exitY=1;exitDx=0;exitDy=0;exitPerimeter=0;" parent="1" source="8s1U5fgonD1U1PNJpZFF-5" target="ofh8wj_7EFLU0r1zvv-N-32" edge="1">
          <mxGeometry width="50" height="50" relative="1" as="geometry">
            <mxPoint x="406" y="695" as="sourcePoint" />
            <mxPoint x="456" y="645" as="targetPoint" />
          </mxGeometry>
        </mxCell>
        <mxCell id="8s1U5fgonD1U1PNJpZFF-7" value="" style="endArrow=none;html=1;rounded=0;entryX=0.5;entryY=1;entryDx=0;entryDy=0;exitX=0.5;exitY=0;exitDx=0;exitDy=0;exitPerimeter=0;" parent="1" source="8s1U5fgonD1U1PNJpZFF-5" target="ofh8wj_7EFLU0r1zvv-N-34" edge="1">
          <mxGeometry width="50" height="50" relative="1" as="geometry">
            <mxPoint x="560" y="711" as="sourcePoint" />
            <mxPoint x="610" y="661" as="targetPoint" />
          </mxGeometry>
        </mxCell>
        <mxCell id="8s1U5fgonD1U1PNJpZFF-9" value="WIFI" style="ellipse;whiteSpace=wrap;html=1;" parent="1" vertex="1">
          <mxGeometry x="277" y="375" width="120" height="80" as="geometry" />
        </mxCell>
        <mxCell id="8s1U5fgonD1U1PNJpZFF-10" value="" style="endArrow=none;html=1;rounded=0;entryX=0.55;entryY=0.95;entryDx=0;entryDy=0;entryPerimeter=0;exitX=0.5;exitY=0;exitDx=0;exitDy=0;" parent="1" source="8s1U5fgonD1U1PNJpZFF-9" target="ofh8wj_7EFLU0r1zvv-N-37" edge="1">
          <mxGeometry width="50" height="50" relative="1" as="geometry">
            <mxPoint x="468" y="396" as="sourcePoint" />
            <mxPoint x="518" y="346" as="targetPoint" />
          </mxGeometry>
        </mxCell>
        <mxCell id="8s1U5fgonD1U1PNJpZFF-11" value="" style="endArrow=none;html=1;rounded=0;exitX=0.5;exitY=0;exitDx=0;exitDy=0;entryX=0;entryY=0.5;entryDx=0;entryDy=0;" parent="1" source="ofh8wj_7EFLU0r1zvv-N-18" target="8s1U5fgonD1U1PNJpZFF-9" edge="1">
          <mxGeometry width="50" height="50" relative="1" as="geometry">
            <mxPoint x="165" y="418" as="sourcePoint" />
            <mxPoint x="215" y="368" as="targetPoint" />
          </mxGeometry>
        </mxCell>
        <mxCell id="8s1U5fgonD1U1PNJpZFF-12" value="" style="endArrow=none;html=1;rounded=0;entryX=1;entryY=0.5;entryDx=0;entryDy=0;exitX=0.5;exitY=0;exitDx=0;exitDy=0;" parent="1" source="ofh8wj_7EFLU0r1zvv-N-19" target="8s1U5fgonD1U1PNJpZFF-9" edge="1">
          <mxGeometry width="50" height="50" relative="1" as="geometry">
            <mxPoint x="460" y="440" as="sourcePoint" />
            <mxPoint x="510" y="390" as="targetPoint" />
          </mxGeometry>
        </mxCell>
        <mxCell id="8s1U5fgonD1U1PNJpZFF-13" value="Telemovel" style="whiteSpace=wrap;html=1;aspect=fixed;" parent="1" vertex="1">
          <mxGeometry x="-135" y="455" width="80" height="80" as="geometry" />
        </mxCell>
        <mxCell id="8s1U5fgonD1U1PNJpZFF-14" value="WIFI" style="ellipse;whiteSpace=wrap;html=1;aspect=fixed;" parent="1" vertex="1">
          <mxGeometry x="24" y="518" width="38" height="38" as="geometry" />
        </mxCell>
        <mxCell id="8s1U5fgonD1U1PNJpZFF-15" value="WIFI" style="ellipse;whiteSpace=wrap;html=1;aspect=fixed;" parent="1" vertex="1">
          <mxGeometry x="146" y="521" width="38" height="38" as="geometry" />
        </mxCell>
        <mxCell id="8s1U5fgonD1U1PNJpZFF-16" value="WIFI" style="ellipse;whiteSpace=wrap;html=1;aspect=fixed;" parent="1" vertex="1">
          <mxGeometry x="269" y="518" width="38" height="38" as="geometry" />
        </mxCell>
        <mxCell id="8s1U5fgonD1U1PNJpZFF-17" value="" style="endArrow=none;html=1;rounded=0;exitX=0.5;exitY=0;exitDx=0;exitDy=0;entryX=0;entryY=0.5;entryDx=0;entryDy=0;" parent="1" source="8s1U5fgonD1U1PNJpZFF-14" target="ofh8wj_7EFLU0r1zvv-N-18" edge="1">
          <mxGeometry width="50" height="50" relative="1" as="geometry">
            <mxPoint x="46" y="508" as="sourcePoint" />
            <mxPoint x="96" y="458" as="targetPoint" />
          </mxGeometry>
        </mxCell>
        <mxCell id="8s1U5fgonD1U1PNJpZFF-18" value="Plataforma" style="rounded=1;whiteSpace=wrap;html=1;" parent="1" vertex="1">
          <mxGeometry x="458" y="75" width="120" height="60" as="geometry" />
        </mxCell>
        <mxCell id="8s1U5fgonD1U1PNJpZFF-19" value="" style="endArrow=none;html=1;rounded=0;exitX=0.625;exitY=0.2;exitDx=0;exitDy=0;exitPerimeter=0;entryX=0.5;entryY=1;entryDx=0;entryDy=0;" parent="1" source="ofh8wj_7EFLU0r1zvv-N-38" target="8s1U5fgonD1U1PNJpZFF-18" edge="1">
          <mxGeometry width="50" height="50" relative="1" as="geometry">
            <mxPoint x="490" y="192" as="sourcePoint" />
            <mxPoint x="495" y="138" as="targetPoint" />
          </mxGeometry>
        </mxCell>
        <mxCell id="8s1U5fgonD1U1PNJpZFF-20" value="" style="endArrow=none;html=1;rounded=0;entryX=0.5;entryY=1;entryDx=0;entryDy=0;exitX=0.5;exitY=0;exitDx=0;exitDy=0;" parent="1" source="ofh8wj_7EFLU0r1zvv-N-21" target="8s1U5fgonD1U1PNJpZFF-14" edge="1">
          <mxGeometry width="50" height="50" relative="1" as="geometry">
            <mxPoint x="-223" y="730" as="sourcePoint" />
            <mxPoint x="-173" y="680" as="targetPoint" />
          </mxGeometry>
        </mxCell>
        <mxCell id="8s1U5fgonD1U1PNJpZFF-21" value="" style="endArrow=none;html=1;rounded=0;entryX=0.5;entryY=1;entryDx=0;entryDy=0;exitX=0.5;exitY=0;exitDx=0;exitDy=0;" parent="1" source="ofh8wj_7EFLU0r1zvv-N-22" target="8s1U5fgonD1U1PNJpZFF-15" edge="1">
          <mxGeometry width="50" height="50" relative="1" as="geometry">
            <mxPoint x="-12" y="720" as="sourcePoint" />
            <mxPoint x="38" y="670" as="targetPoint" />
          </mxGeometry>
        </mxCell>
        <mxCell id="8s1U5fgonD1U1PNJpZFF-22" value="" style="endArrow=none;html=1;rounded=0;entryX=1;entryY=1;entryDx=0;entryDy=0;exitX=0.5;exitY=0;exitDx=0;exitDy=0;" parent="1" source="8s1U5fgonD1U1PNJpZFF-16" target="ofh8wj_7EFLU0r1zvv-N-18" edge="1">
          <mxGeometry width="50" height="50" relative="1" as="geometry">
            <mxPoint x="-117" y="708" as="sourcePoint" />
            <mxPoint x="-67" y="658" as="targetPoint" />
          </mxGeometry>
        </mxCell>
        <mxCell id="8s1U5fgonD1U1PNJpZFF-23" value="" style="endArrow=none;html=1;rounded=0;entryX=0.5;entryY=1;entryDx=0;entryDy=0;exitX=0.5;exitY=0;exitDx=0;exitDy=0;" parent="1" source="8s1U5fgonD1U1PNJpZFF-15" target="ofh8wj_7EFLU0r1zvv-N-18" edge="1">
          <mxGeometry width="50" height="50" relative="1" as="geometry">
            <mxPoint x="-47" y="749" as="sourcePoint" />
            <mxPoint x="3" y="699" as="targetPoint" />
          </mxGeometry>
        </mxCell>
        <mxCell id="8s1U5fgonD1U1PNJpZFF-24" value="" style="endArrow=none;html=1;rounded=0;entryX=0.5;entryY=1;entryDx=0;entryDy=0;exitX=0.5;exitY=0;exitDx=0;exitDy=0;" parent="1" source="ofh8wj_7EFLU0r1zvv-N-23" target="8s1U5fgonD1U1PNJpZFF-16" edge="1">
          <mxGeometry width="50" height="50" relative="1" as="geometry">
            <mxPoint x="-83" y="753" as="sourcePoint" />
            <mxPoint x="-33" y="703" as="targetPoint" />
          </mxGeometry>
        </mxCell>
        <mxCell id="8s1U5fgonD1U1PNJpZFF-25" value="WIFI" style="ellipse;whiteSpace=wrap;html=1;aspect=fixed;" parent="1" vertex="1">
          <mxGeometry x="420" y="532" width="38" height="38" as="geometry" />
        </mxCell>
        <mxCell id="8s1U5fgonD1U1PNJpZFF-26" value="WIFI" style="ellipse;whiteSpace=wrap;html=1;aspect=fixed;" parent="1" vertex="1">
          <mxGeometry x="562" y="532" width="38" height="38" as="geometry" />
        </mxCell>
        <mxCell id="8s1U5fgonD1U1PNJpZFF-27" value="" style="endArrow=none;html=1;rounded=0;entryX=0.5;entryY=1;entryDx=0;entryDy=0;exitX=0.5;exitY=0;exitDx=0;exitDy=0;" parent="1" source="8s1U5fgonD1U1PNJpZFF-25" target="ofh8wj_7EFLU0r1zvv-N-19" edge="1">
          <mxGeometry width="50" height="50" relative="1" as="geometry">
            <mxPoint x="308" y="727" as="sourcePoint" />
            <mxPoint x="358" y="677" as="targetPoint" />
          </mxGeometry>
        </mxCell>
        <mxCell id="8s1U5fgonD1U1PNJpZFF-28" value="" style="endArrow=none;html=1;rounded=0;entryX=0.75;entryY=1;entryDx=0;entryDy=0;exitX=0.5;exitY=0;exitDx=0;exitDy=0;" parent="1" source="8s1U5fgonD1U1PNJpZFF-26" target="ofh8wj_7EFLU0r1zvv-N-19" edge="1">
          <mxGeometry width="50" height="50" relative="1" as="geometry">
            <mxPoint x="332" y="744" as="sourcePoint" />
            <mxPoint x="382" y="694" as="targetPoint" />
          </mxGeometry>
        </mxCell>
        <mxCell id="8s1U5fgonD1U1PNJpZFF-29" value="" style="endArrow=none;html=1;rounded=0;entryX=0.5;entryY=1;entryDx=0;entryDy=0;exitX=0.5;exitY=0;exitDx=0;exitDy=0;" parent="1" source="ofh8wj_7EFLU0r1zvv-N-32" target="8s1U5fgonD1U1PNJpZFF-25" edge="1">
          <mxGeometry width="50" height="50" relative="1" as="geometry">
            <mxPoint x="342" y="731" as="sourcePoint" />
            <mxPoint x="392" y="681" as="targetPoint" />
          </mxGeometry>
        </mxCell>
        <mxCell id="8s1U5fgonD1U1PNJpZFF-30" value="" style="endArrow=none;html=1;rounded=0;entryX=0.5;entryY=1;entryDx=0;entryDy=0;" parent="1" source="ofh8wj_7EFLU0r1zvv-N-34" target="8s1U5fgonD1U1PNJpZFF-26" edge="1">
          <mxGeometry width="50" height="50" relative="1" as="geometry">
            <mxPoint x="324" y="780" as="sourcePoint" />
            <mxPoint x="374" y="730" as="targetPoint" />
          </mxGeometry>
        </mxCell>
        <mxCell id="8s1U5fgonD1U1PNJpZFF-31" value="PT" style="shape=umlActor;verticalLabelPosition=bottom;verticalAlign=top;html=1;outlineConnect=0;" parent="1" vertex="1">
          <mxGeometry x="-110" y="558" width="30" height="60" as="geometry" />
        </mxCell>
        <mxCell id="8s1U5fgonD1U1PNJpZFF-32" value="" style="endArrow=none;html=1;rounded=0;entryX=0.5;entryY=1;entryDx=0;entryDy=0;exitX=0.5;exitY=0;exitDx=0;exitDy=0;exitPerimeter=0;" parent="1" source="8s1U5fgonD1U1PNJpZFF-31" target="8s1U5fgonD1U1PNJpZFF-13" edge="1">
          <mxGeometry width="50" height="50" relative="1" as="geometry">
            <mxPoint x="-188" y="604" as="sourcePoint" />
            <mxPoint x="-138" y="554" as="targetPoint" />
          </mxGeometry>
        </mxCell>
        <mxCell id="8s1U5fgonD1U1PNJpZFF-33" value="Telemovel" style="whiteSpace=wrap;html=1;aspect=fixed;" parent="1" vertex="1">
          <mxGeometry x="672" y="451" width="80" height="80" as="geometry" />
        </mxCell>
        <mxCell id="8s1U5fgonD1U1PNJpZFF-34" value="Actor" style="shape=umlActor;verticalLabelPosition=bottom;verticalAlign=top;html=1;outlineConnect=0;" parent="1" vertex="1">
          <mxGeometry x="669" y="565" width="30" height="60" as="geometry" />
        </mxCell>
        <mxCell id="8s1U5fgonD1U1PNJpZFF-35" value="" style="endArrow=none;html=1;rounded=0;entryX=0.5;entryY=1;entryDx=0;entryDy=0;exitX=0.5;exitY=0;exitDx=0;exitDy=0;exitPerimeter=0;" parent="1" source="8s1U5fgonD1U1PNJpZFF-34" target="8s1U5fgonD1U1PNJpZFF-33" edge="1">
          <mxGeometry width="50" height="50" relative="1" as="geometry">
            <mxPoint x="616" y="607" as="sourcePoint" />
            <mxPoint x="666" y="557" as="targetPoint" />
          </mxGeometry>
        </mxCell>
        <mxCell id="vs9A9dDgOiyKVh6lvaaV-1" value="WIFI" style="ellipse;whiteSpace=wrap;html=1;aspect=fixed;" parent="1" vertex="1">
          <mxGeometry x="-12" y="456" width="38" height="38" as="geometry" />
        </mxCell>
        <mxCell id="vs9A9dDgOiyKVh6lvaaV-2" value="" style="endArrow=none;html=1;rounded=0;exitX=1;exitY=0.5;exitDx=0;exitDy=0;entryX=0;entryY=0.5;entryDx=0;entryDy=0;" parent="1" source="8s1U5fgonD1U1PNJpZFF-13" target="vs9A9dDgOiyKVh6lvaaV-1" edge="1">
          <mxGeometry width="50" height="50" relative="1" as="geometry">
            <mxPoint x="-29" y="389" as="sourcePoint" />
            <mxPoint x="21" y="339" as="targetPoint" />
          </mxGeometry>
        </mxCell>
        <mxCell id="vs9A9dDgOiyKVh6lvaaV-3" value="" style="endArrow=none;html=1;rounded=0;exitX=1;exitY=0.5;exitDx=0;exitDy=0;entryX=0;entryY=0.25;entryDx=0;entryDy=0;" parent="1" source="vs9A9dDgOiyKVh6lvaaV-1" target="ofh8wj_7EFLU0r1zvv-N-18" edge="1">
          <mxGeometry width="50" height="50" relative="1" as="geometry">
            <mxPoint x="49" y="425" as="sourcePoint" />
            <mxPoint x="99" y="375" as="targetPoint" />
          </mxGeometry>
        </mxCell>
        <mxCell id="vs9A9dDgOiyKVh6lvaaV-4" value="WIFI" style="ellipse;whiteSpace=wrap;html=1;aspect=fixed;" parent="1" vertex="1">
          <mxGeometry x="586" y="472" width="38" height="38" as="geometry" />
        </mxCell>
        <mxCell id="vs9A9dDgOiyKVh6lvaaV-5" value="" style="endArrow=none;html=1;rounded=0;exitX=1;exitY=0.5;exitDx=0;exitDy=0;entryX=0;entryY=0.5;entryDx=0;entryDy=0;" parent="1" source="ofh8wj_7EFLU0r1zvv-N-19" target="vs9A9dDgOiyKVh6lvaaV-4" edge="1">
          <mxGeometry width="50" height="50" relative="1" as="geometry">
            <mxPoint x="666" y="400" as="sourcePoint" />
            <mxPoint x="716" y="350" as="targetPoint" />
          </mxGeometry>
        </mxCell>
        <mxCell id="vs9A9dDgOiyKVh6lvaaV-6" value="" style="endArrow=none;html=1;rounded=0;exitX=1;exitY=0.5;exitDx=0;exitDy=0;entryX=0;entryY=0.5;entryDx=0;entryDy=0;" parent="1" source="vs9A9dDgOiyKVh6lvaaV-4" target="8s1U5fgonD1U1PNJpZFF-33" edge="1">
          <mxGeometry width="50" height="50" relative="1" as="geometry">
            <mxPoint x="636" y="385" as="sourcePoint" />
            <mxPoint x="686" y="335" as="targetPoint" />
          </mxGeometry>
        </mxCell>
        <mxCell id="vs9A9dDgOiyKVh6lvaaV-7" value="WAN" style="ellipse;whiteSpace=wrap;html=1;aspect=fixed;" parent="1" vertex="1">
          <mxGeometry x="417" y="248" width="38" height="38" as="geometry" />
        </mxCell>
        <mxCell id="vs9A9dDgOiyKVh6lvaaV-8" value="" style="endArrow=none;html=1;rounded=0;exitX=0.88;exitY=0.25;exitDx=0;exitDy=0;exitPerimeter=0;entryX=0;entryY=1;entryDx=0;entryDy=0;" parent="1" source="ofh8wj_7EFLU0r1zvv-N-37" target="vs9A9dDgOiyKVh6lvaaV-7" edge="1">
          <mxGeometry width="50" height="50" relative="1" as="geometry">
            <mxPoint x="349" y="216" as="sourcePoint" />
            <mxPoint x="399" y="166" as="targetPoint" />
          </mxGeometry>
        </mxCell>
        <mxCell id="vs9A9dDgOiyKVh6lvaaV-9" value="" style="endArrow=none;html=1;rounded=0;exitX=1;exitY=0.5;exitDx=0;exitDy=0;entryX=0.55;entryY=0.95;entryDx=0;entryDy=0;entryPerimeter=0;" parent="1" source="vs9A9dDgOiyKVh6lvaaV-7" target="ofh8wj_7EFLU0r1zvv-N-38" edge="1">
          <mxGeometry width="50" height="50" relative="1" as="geometry">
            <mxPoint x="371" y="184" as="sourcePoint" />
            <mxPoint x="421" y="134" as="targetPoint" />
          </mxGeometry>
        </mxCell>
      </root>
    </mxGraphModel>
  </diagram>
  <diagram name="Diagrama de Segundo Nivel" id="znJdc4I-ii4nYZw6uaqB">
    <mxGraphModel dx="1934" dy="1172" grid="0" gridSize="10" guides="1" tooltips="1" connect="1" arrows="1" fold="1" page="0" pageScale="1" pageWidth="827" pageHeight="1169" math="0" shadow="0">
      <root>
        <mxCell id="0" />
        <mxCell id="1" parent="0" />
        <mxCell id="IWLW0hKWiOgfwPLbsf5c-6" style="edgeStyle=orthogonalEdgeStyle;rounded=0;orthogonalLoop=1;jettySize=auto;html=1;exitX=0.5;exitY=1;exitDx=0;exitDy=0;" edge="1" parent="1" source="TYEmRgy2JSYjD62KbLlJ-2" target="IWLW0hKWiOgfwPLbsf5c-1">
          <mxGeometry relative="1" as="geometry" />
        </mxCell>
        <mxCell id="IWLW0hKWiOgfwPLbsf5c-29" style="edgeStyle=orthogonalEdgeStyle;rounded=0;orthogonalLoop=1;jettySize=auto;html=1;exitX=0;exitY=0.5;exitDx=0;exitDy=0;entryX=0.5;entryY=1;entryDx=0;entryDy=0;" edge="1" parent="1" source="TYEmRgy2JSYjD62KbLlJ-2" target="IWLW0hKWiOgfwPLbsf5c-28">
          <mxGeometry relative="1" as="geometry" />
        </mxCell>
        <mxCell id="TYEmRgy2JSYjD62KbLlJ-2" value="Câmeras" style="rounded=0;whiteSpace=wrap;html=1;" parent="1" vertex="1">
          <mxGeometry x="-371" y="-15" width="120" height="60" as="geometry" />
        </mxCell>
        <mxCell id="IWLW0hKWiOgfwPLbsf5c-17" style="edgeStyle=orthogonalEdgeStyle;rounded=0;orthogonalLoop=1;jettySize=auto;html=1;exitX=0.5;exitY=1;exitDx=0;exitDy=0;" edge="1" parent="1" source="TYEmRgy2JSYjD62KbLlJ-3" target="IWLW0hKWiOgfwPLbsf5c-7">
          <mxGeometry relative="1" as="geometry" />
        </mxCell>
        <mxCell id="TYEmRgy2JSYjD62KbLlJ-3" value="PC/Telemovel" style="whiteSpace=wrap;html=1;aspect=fixed;" parent="1" vertex="1">
          <mxGeometry x="-203" y="-154" width="80" height="80" as="geometry" />
        </mxCell>
        <mxCell id="IWLW0hKWiOgfwPLbsf5c-15" style="edgeStyle=orthogonalEdgeStyle;rounded=0;orthogonalLoop=1;jettySize=auto;html=1;exitX=0.5;exitY=0;exitDx=0;exitDy=0;" edge="1" parent="1" source="rJVzAIaAuG6v0vmfIaJy-1" target="IWLW0hKWiOgfwPLbsf5c-2">
          <mxGeometry relative="1" as="geometry" />
        </mxCell>
        <mxCell id="rJVzAIaAuG6v0vmfIaJy-1" value="CLOUD" style="ellipse;whiteSpace=wrap;html=1;" parent="1" vertex="1">
          <mxGeometry x="-80" y="66" width="120" height="80" as="geometry" />
        </mxCell>
        <mxCell id="IWLW0hKWiOgfwPLbsf5c-1" value="Atleta" style="shape=umlActor;verticalLabelPosition=bottom;verticalAlign=top;html=1;outlineConnect=0;" vertex="1" parent="1">
          <mxGeometry x="-322" y="148" width="30" height="60" as="geometry" />
        </mxCell>
        <mxCell id="IWLW0hKWiOgfwPLbsf5c-16" style="edgeStyle=orthogonalEdgeStyle;rounded=0;orthogonalLoop=1;jettySize=auto;html=1;exitX=0.5;exitY=0;exitDx=0;exitDy=0;entryX=0.5;entryY=0;entryDx=0;entryDy=0;" edge="1" parent="1" source="IWLW0hKWiOgfwPLbsf5c-2" target="IWLW0hKWiOgfwPLbsf5c-10">
          <mxGeometry relative="1" as="geometry" />
        </mxCell>
        <mxCell id="IWLW0hKWiOgfwPLbsf5c-20" style="edgeStyle=orthogonalEdgeStyle;rounded=0;orthogonalLoop=1;jettySize=auto;html=1;exitX=1;exitY=1;exitDx=0;exitDy=0;entryX=1;entryY=0;entryDx=0;entryDy=0;" edge="1" parent="1" source="IWLW0hKWiOgfwPLbsf5c-2" target="rJVzAIaAuG6v0vmfIaJy-1">
          <mxGeometry relative="1" as="geometry" />
        </mxCell>
        <mxCell id="IWLW0hKWiOgfwPLbsf5c-2" value="Internet&lt;div&gt;WIFI&lt;/div&gt;" style="ellipse;whiteSpace=wrap;html=1;" vertex="1" parent="1">
          <mxGeometry x="-80" y="-59" width="120" height="80" as="geometry" />
        </mxCell>
        <mxCell id="IWLW0hKWiOgfwPLbsf5c-3" value="API" style="rounded=1;whiteSpace=wrap;html=1;" vertex="1" parent="1">
          <mxGeometry x="-80" y="190" width="120" height="60" as="geometry" />
        </mxCell>
        <mxCell id="IWLW0hKWiOgfwPLbsf5c-7" value="Instrutor" style="shape=umlActor;verticalLabelPosition=bottom;verticalAlign=top;html=1;outlineConnect=0;" vertex="1" parent="1">
          <mxGeometry x="-200" y="148" width="29" height="60" as="geometry" />
        </mxCell>
        <mxCell id="IWLW0hKWiOgfwPLbsf5c-27" style="edgeStyle=orthogonalEdgeStyle;rounded=0;orthogonalLoop=1;jettySize=auto;html=1;exitX=0.5;exitY=1;exitDx=0;exitDy=0;entryX=0.5;entryY=0;entryDx=0;entryDy=0;" edge="1" parent="1" source="IWLW0hKWiOgfwPLbsf5c-10" target="IWLW0hKWiOgfwPLbsf5c-24">
          <mxGeometry relative="1" as="geometry" />
        </mxCell>
        <mxCell id="IWLW0hKWiOgfwPLbsf5c-10" value="Rede Local" style="rounded=0;whiteSpace=wrap;html=1;" vertex="1" parent="1">
          <mxGeometry x="-379" y="-265" width="120" height="60" as="geometry" />
        </mxCell>
        <mxCell id="IWLW0hKWiOgfwPLbsf5c-14" style="edgeStyle=orthogonalEdgeStyle;rounded=0;orthogonalLoop=1;jettySize=auto;html=1;exitX=0.5;exitY=0;exitDx=0;exitDy=0;entryX=0.535;entryY=0.947;entryDx=0;entryDy=0;entryPerimeter=0;" edge="1" parent="1" source="IWLW0hKWiOgfwPLbsf5c-3" target="rJVzAIaAuG6v0vmfIaJy-1">
          <mxGeometry relative="1" as="geometry" />
        </mxCell>
        <mxCell id="IWLW0hKWiOgfwPLbsf5c-19" style="edgeStyle=orthogonalEdgeStyle;rounded=0;orthogonalLoop=1;jettySize=auto;html=1;exitX=0.25;exitY=0;exitDx=0;exitDy=0;entryX=0.813;entryY=0.069;entryDx=0;entryDy=0;entryPerimeter=0;" edge="1" parent="1">
          <mxGeometry relative="1" as="geometry">
            <mxPoint x="-361" y="-265" as="sourcePoint" />
            <mxPoint x="5.559999999999945" y="-56.48000000000002" as="targetPoint" />
            <Array as="points">
              <mxPoint x="-361" y="-314" />
              <mxPoint x="6" y="-314" />
            </Array>
          </mxGeometry>
        </mxCell>
        <mxCell id="IWLW0hKWiOgfwPLbsf5c-21" style="edgeStyle=orthogonalEdgeStyle;rounded=0;orthogonalLoop=1;jettySize=auto;html=1;exitX=1;exitY=1;exitDx=0;exitDy=0;entryX=0.854;entryY=0.025;entryDx=0;entryDy=0;entryPerimeter=0;" edge="1" parent="1" source="rJVzAIaAuG6v0vmfIaJy-1" target="IWLW0hKWiOgfwPLbsf5c-3">
          <mxGeometry relative="1" as="geometry" />
        </mxCell>
        <mxCell id="IWLW0hKWiOgfwPLbsf5c-25" style="edgeStyle=orthogonalEdgeStyle;rounded=0;orthogonalLoop=1;jettySize=auto;html=1;exitX=0.5;exitY=1;exitDx=0;exitDy=0;entryX=0.5;entryY=0;entryDx=0;entryDy=0;" edge="1" parent="1" source="IWLW0hKWiOgfwPLbsf5c-24" target="TYEmRgy2JSYjD62KbLlJ-2">
          <mxGeometry relative="1" as="geometry" />
        </mxCell>
        <mxCell id="IWLW0hKWiOgfwPLbsf5c-24" value="Camera Ligada à rede local" style="rhombus;whiteSpace=wrap;html=1;" vertex="1" parent="1">
          <mxGeometry x="-347" y="-147" width="80" height="80" as="geometry" />
        </mxCell>
        <mxCell id="IWLW0hKWiOgfwPLbsf5c-30" style="edgeStyle=orthogonalEdgeStyle;rounded=0;orthogonalLoop=1;jettySize=auto;html=1;exitX=0.5;exitY=0;exitDx=0;exitDy=0;entryX=0;entryY=0.25;entryDx=0;entryDy=0;" edge="1" parent="1" source="IWLW0hKWiOgfwPLbsf5c-28" target="IWLW0hKWiOgfwPLbsf5c-10">
          <mxGeometry relative="1" as="geometry" />
        </mxCell>
        <mxCell id="IWLW0hKWiOgfwPLbsf5c-28" value="Envio do Alerta" style="rhombus;whiteSpace=wrap;html=1;" vertex="1" parent="1">
          <mxGeometry x="-459" y="-150" width="80" height="80" as="geometry" />
        </mxCell>
        <mxCell id="IWLW0hKWiOgfwPLbsf5c-32" style="edgeStyle=orthogonalEdgeStyle;rounded=0;orthogonalLoop=1;jettySize=auto;html=1;exitX=0.5;exitY=1;exitDx=0;exitDy=0;entryX=0.5;entryY=0;entryDx=0;entryDy=0;" edge="1" parent="1" source="IWLW0hKWiOgfwPLbsf5c-31" target="TYEmRgy2JSYjD62KbLlJ-3">
          <mxGeometry relative="1" as="geometry" />
        </mxCell>
        <mxCell id="IWLW0hKWiOgfwPLbsf5c-33" style="edgeStyle=orthogonalEdgeStyle;rounded=0;orthogonalLoop=1;jettySize=auto;html=1;exitX=0;exitY=0.5;exitDx=0;exitDy=0;entryX=1;entryY=0.5;entryDx=0;entryDy=0;" edge="1" parent="1" source="IWLW0hKWiOgfwPLbsf5c-31" target="IWLW0hKWiOgfwPLbsf5c-10">
          <mxGeometry relative="1" as="geometry" />
        </mxCell>
        <mxCell id="IWLW0hKWiOgfwPLbsf5c-31" value="Recebe o Alerta" style="rhombus;whiteSpace=wrap;html=1;" vertex="1" parent="1">
          <mxGeometry x="-203" y="-269" width="80" height="80" as="geometry" />
        </mxCell>
      </root>
    </mxGraphModel>
  </diagram>
</mxfile>
